<svg width="375" height="950" viewBox="0 0 375 950" fill="none" xmlns="http://www.w3.org/2000/svg">
<path d="M-321 103C-262.51 49.117 -175.704 -9.89947 -72.6845 1.40487C8.1189 10.2724 49.7344 56.966 121.957 89.4433C200.49 124.762 291.135 142.79 446 59.9997V610H-321L-321 103Z" fill="url(#paint0_linear_0_1)" fill-opacity="0.1"/>
<path d="M-320.5 609.5L-320.5 103.219C-262.039 49.4013 -175.44 -9.36749 -72.739 1.90189C-32.432 6.32527 -1.89523 20.1807 27.6064 37.0048C36.596 42.1313 45.4964 47.5383 54.5507 53.0388C75.1917 65.5782 96.6324 78.6034 121.752 89.8993C161.059 107.577 203.431 120.942 255.368 119.512C307.137 118.087 368.366 101.965 445.5 60.8334V609.5H-320.5Z" stroke="url(#paint1_linear_0_1)" stroke-opacity="0.6" style="mix-blend-mode:overlay"/>
<path d="M-321 90.9911C-233.185 200.519 -170.759 226.94 -128.984 213.253C-71.4587 194.405 -66.9312 103.79 -7.00937 103.79C34.5365 103.79 67.2891 206.373 134.192 205.116C209.614 203.701 223.922 77.2552 314.438 38.3901C376.469 11.7599 446 76.9747 446 76.9747V950H-321L-321 90.9911Z" fill="url(#paint2_linear_0_1)" fill-opacity="0.3"/>
<path d="M445.5 77.1931V949.5H-320.5L-320.5 92.4123C-276.955 146.551 -239.643 180.257 -207.979 198.759C-176.094 217.391 -149.893 220.63 -128.828 213.728C-114.33 208.978 -103.188 199.709 -93.702 188.521C-85.5051 178.854 -78.5227 167.725 -71.6782 156.817C-70.6077 155.11 -69.5406 153.41 -68.4727 151.721C-52.6394 126.678 -36.6617 104.29 -7.00937 104.29C3.17087 104.29 12.8842 110.578 22.8253 120.159C30.3249 127.387 37.8899 136.423 45.8333 145.91C48.4127 148.991 51.0321 152.119 53.702 155.249C75.4278 180.716 100.485 206.249 134.201 205.616C153.216 205.259 168.365 197.016 181.789 184.296C195.199 171.59 206.917 154.389 219.071 136.073C219.912 134.805 220.756 133.532 221.602 132.255C245.24 96.5748 271.098 57.5432 314.635 38.8495C345.443 25.6235 378.16 35.1889 403.251 48.1404C415.787 54.611 426.392 61.9133 433.864 67.5989C437.599 70.4413 440.55 72.8786 442.566 74.6044C443.574 75.4673 444.348 76.1522 444.87 76.6208C445.131 76.8551 445.328 77.0353 445.46 77.1567C445.474 77.1695 445.488 77.1816 445.5 77.1931Z" stroke="url(#paint3_linear_0_1)" stroke-opacity="0.6" style="mix-blend-mode:overlay"/>
<defs>
<linearGradient id="paint0_linear_0_1" x1="74.7507" y1="-0.000366211" x2="74.7507" y2="610" gradientUnits="userSpaceOnUse">
<stop stop-color="#0BD88F"/>
<stop offset="1" stop-color="#0BD88F" stop-opacity="0"/>
</linearGradient>
<linearGradient id="paint1_linear_0_1" x1="74.7504" y1="-0.000366211" x2="74.7504" y2="492.386" gradientUnits="userSpaceOnUse">
<stop stop-color="white"/>
<stop offset="1" stop-color="white" stop-opacity="0"/>
</linearGradient>
<linearGradient id="paint2_linear_0_1" x1="73.6853" y1="51.9452" x2="73.6853" y2="837.368" gradientUnits="userSpaceOnUse">
<stop stop-color="#0BD88F"/>
<stop offset="1" stop-color="#4BDFFF" stop-opacity="0"/>
</linearGradient>
<linearGradient id="paint3_linear_0_1" x1="73.6854" y1="51.9452" x2="73.6854" y2="528.179" gradientUnits="userSpaceOnUse">
<stop stop-color="white"/>
<stop offset="1" stop-color="white" stop-opacity="0"/>
</linearGradient>
</defs>
</svg>
